<?xml version="1.0" standalone="no"?><!DOCTYPE svg PUBLIC "-//W3C//DTD SVG 1.1//EN" "http://www.w3.org/Graphics/SVG/1.1/DTD/svg11.dtd"><svg t="1685372399184" class="icon" viewBox="0 0 1024 1024" version="1.1" xmlns="http://www.w3.org/2000/svg" p-id="4170" xmlns:xlink="http://www.w3.org/1999/xlink" width="200" height="200"><path d="M511.9 930.3c-231.6 0-420-188.4-420-420s188.4-420 420-420 420 188.4 420 420-188.4 420-420 420z m0-749.3c-181.5 0-329.2 147.7-329.2 329.2s147.7 329.2 329.2 329.2 329.2-147.7 329.2-329.2S693.4 181 511.9 181z" fill="#3F85FF" p-id="4171"></path><path d="M652.3 546.5h-93.7V499h93.7c23.4 0 46.8-23.8 46.8-47.5S675.8 404 652.3 404h-28.1l18.7-19c18.7-19 18.7-47.5 0-66.5s-46.8-19-65.6 0L511.9 385l-65.6-61.8c-18.7-19-46.8-19-65.6 0-18.7 19-18.7 47.5 0 66.5l18.7 19h-28.1c-23.4 0-46.8 23.8-46.8 47.5 0 23.8 23.4 47.5 46.8 47.5H465v47.5h-93.7c-23.4 0-46.8 23.8-46.8 47.5s23.4 47.5 46.8 47.5H465v52.3c0 23.8 18.7 42.8 42.1 42.8h9.4c23.4 0 42.1-19 42.1-42.8v-52.3h93.7c23.4 0 46.8-23.8 46.8-47.5s-23.3-52.2-46.8-52.2z" fill="#A4BEEC" p-id="4172"></path></svg>